<?xml version="1.0" standalone="no"?>
<!DOCTYPE svg PUBLIC "-//W3C//DTD SVG 20010904//EN"
 "http://www.w3.org/TR/2001/REC-SVG-20010904/DTD/svg10.dtd">
<svg version="1.0" xmlns="http://www.w3.org/2000/svg"
 width="580.000000pt" height="890.000000pt" viewBox="0 0 300.000000 362.000000"
 preserveAspectRatio="xMidYMid meet">
<g transform="translate(0.000000,362.000000) scale(0.100000,-0.100000)"
fill="#00eeff" stroke="none">
<path d="M1979 3426 c-3 -3 -31 -7 -62 -8 -115 -5 -40 -12 136 -13 202 -2 275
-14 407 -68 72 -30 161 -82 168 -99 2 -4 9 -8 15 -8 11 0 105 -95 132 -131 25
-35 74 -139 91 -194 15 -48 18 -92 18 -215 -1 -142 -3 -161 -27 -230 -15 -41
-23 -70 -18 -65 13 14 40 97 55 170 26 125 14 265 -34 401 -53 152 -177 284
-340 364 -25 12 -53 26 -64 32 -18 9 -40 16 -81 23 -11 2 -35 8 -54 14 -19 6
-38 8 -42 5 -5 -3 -9 -1 -9 4 0 6 -10 10 -22 10 -13 0 -77 3 -143 7 -66 4
-123 5 -126 1z"/>
<path d="M1810 3400 c-8 -5 -22 -7 -31 -5 -8 3 -24 -2 -35 -10 -17 -13 -17
-14 -1 -15 9 0 17 5 17 11 0 5 4 8 9 4 14 -8 91 6 85 16 -7 12 -25 11 -44 -1z"/>
<path d="M1684 3365 c-10 -8 -14 -15 -7 -15 6 0 15 5 18 10 4 6 11 8 16 5 5
-4 9 -1 9 4 0 15 -13 14 -36 -4z"/>
<path d="M1835 3360 c-192 -30 -369 -118 -469 -232 -48 -55 -116 -174 -116
-203 0 -10 -5 -13 -12 -9 -6 4 -8 3 -5 -3 3 -5 2 -27 -4 -47 -22 -80 -43 -286
-29 -286 6 0 10 -24 10 -52 1 -82 5 -123 11 -128 3 -3 11 -32 18 -65 8 -33 16
-66 19 -73 3 -8 -19 0 -49 17 -75 42 -130 60 -229 77 -382 63 -682 -113 -806
-473 -18 -53 -36 -121 -39 -152 -4 -31 -9 -63 -12 -71 -7 -20 -7 -197 0 -240
6 -36 31 -207 32 -225 1 -5 9 -34 18 -64 9 -29 14 -57 12 -61 -3 -5 -1 -10 3
-12 5 -1 23 -40 41 -86 64 -158 184 -331 305 -436 162 -142 396 -252 611 -287
44 -7 82 -16 85 -19 6 -7 38 -8 245 -8 219 0 245 1 245 11 0 4 13 7 29 7 48 0
230 57 319 100 370 177 604 526 677 1008 29 193 15 658 -25 836 -7 34 -6 44
10 61 23 24 72 123 94 187 46 138 43 332 -8 478 -57 166 -192 307 -364 381
-118 51 -220 70 -392 74 -91 2 -192 0 -225 -5z m370 -24 c144 -22 308 -84 366
-138 15 -14 34 -28 44 -31 9 -4 13 -12 9 -18 -4 -7 -3 -9 3 -6 10 6 34 -17 91
-89 110 -137 150 -420 87 -610 -21 -62 -75 -174 -85 -174 -13 0 -30 -51 -24
-74 7 -27 24 -158 32 -246 3 -36 6 -177 6 -315 0 -274 -11 -361 -75 -558 -43
-133 -131 -306 -195 -385 -92 -113 -123 -144 -138 -135 -5 4 -6 1 -2 -5 4 -7
1 -12 -9 -12 -9 0 -14 -4 -11 -9 7 -10 -10 -25 -97 -85 -65 -45 -195 -113
-227 -120 -8 -2 -28 -8 -45 -15 -41 -17 -175 -48 -260 -60 -84 -12 -419 -6
-456 8 -15 5 -47 12 -70 16 -155 21 -306 79 -464 176 -89 55 -219 175 -209
191 4 6 2 8 -4 4 -11 -6 -90 79 -84 91 2 3 -2 9 -8 13 -24 15 -106 171 -148
280 -51 132 -80 290 -86 455 -8 232 34 411 131 563 46 72 113 143 126 135 6
-3 7 -1 3 5 -4 7 19 28 61 55 93 59 131 74 253 93 8 1 34 5 58 9 30 5 48 3 59
-7 12 -9 15 -9 9 0 -5 8 -1 12 13 12 11 0 22 -4 25 -9 3 -5 20 -7 38 -6 52 5
163 -22 250 -60 43 -19 84 -35 90 -35 12 0 7 53 -16 175 -19 101 -20 318 -2
406 35 165 123 302 248 387 62 41 123 71 160 77 18 4 35 10 38 14 4 8 109 33
180 44 61 10 253 6 335 -7z"/>
<path d="M1977 3214 c-1 -2 -29 -4 -62 -5 -33 -1 -81 -8 -108 -15 -26 -7 -48
-12 -50 -12 -13 2 -127 -37 -127 -43 0 -5 -5 -9 -11 -9 -18 0 -101 -61 -133
-98 -17 -20 -37 -42 -45 -49 -23 -24 -70 -157 -82 -234 -19 -121 3 -365 41
-444 31 -66 84 -249 87 -305 5 -69 -14 -138 -58 -210 l-22 -35 -18 78 c-51
215 -192 343 -420 383 -97 17 -232 15 -302 -4 -174 -47 -334 -235 -373 -440
-16 -85 -19 -286 -5 -397 15 -121 101 -386 137 -423 7 -6 16 -22 20 -34 4 -13
18 -36 31 -53 13 -16 23 -32 22 -35 -3 -10 158 -174 213 -216 139 -107 367
-199 546 -220 31 -3 60 -8 64 -11 14 -8 275 -3 343 7 90 13 133 21 165 32 8 3
33 11 55 18 53 16 209 90 213 101 2 5 9 9 16 9 6 0 32 18 56 40 25 22 53 42
63 45 9 4 17 9 17 13 0 4 21 30 46 57 26 28 58 68 73 90 14 22 29 42 32 45 4
3 29 50 56 105 77 159 116 287 133 438 22 185 8 572 -26 741 -9 43 -14 89 -11
102 2 13 0 24 -6 24 -6 0 1 12 15 28 80 87 124 197 134 337 8 111 -6 185 -52
280 -37 78 -141 195 -173 195 -5 0 -11 3 -13 8 -12 27 -166 83 -278 101 -65
11 -197 20 -203 15z m273 -49 c81 -22 209 -88 265 -137 88 -78 164 -225 153
-299 -3 -16 -1 -26 4 -23 4 3 8 -13 8 -36 0 -23 -3 -39 -8 -36 -4 2 -6 -14 -4
-36 8 -82 -48 -224 -115 -294 -34 -35 -38 -44 -31 -70 14 -50 40 -275 35 -300
-2 -13 0 -21 5 -18 5 3 9 -16 9 -43 0 -26 2 -130 5 -231 4 -124 2 -188 -6
-196 -5 -8 -8 -20 -4 -29 9 -23 -23 -180 -58 -287 -154 -473 -517 -730 -1028
-730 -228 0 -421 45 -604 138 -380 194 -594 602 -573 1091 4 95 11 145 30 202
78 244 276 388 514 374 142 -7 219 -28 311 -81 136 -78 233 -262 219 -416 -4
-50 -3 -57 9 -47 8 6 14 15 14 20 0 4 15 34 34 66 19 32 45 89 57 127 31 98
23 165 -39 351 -68 204 -75 240 -76 390 -1 192 35 303 131 406 47 51 195 134
219 125 7 -3 14 0 16 5 2 6 20 11 41 12 20 1 37 5 37 9 0 22 345 16 430 -7z"/>
<path d="M1945 3097 c9 -5 36 -7 61 -4 84 8 241 -19 318 -56 39 -19 78 -40 86
-48 8 -8 32 -26 52 -42 37 -27 47 -42 90 -127 29 -57 31 -202 5 -264 -10 -22
-15 -41 -12 -44 7 -7 25 46 41 120 34 162 -53 318 -229 408 -67 35 -146 62
-158 54 -4 -2 -10 0 -13 4 -3 5 -62 9 -132 9 -83 0 -120 -3 -109 -10z"/>
<path d="M1875 3091 c-11 -5 -23 -7 -27 -4 -5 2 -8 -1 -8 -6 0 -6 -14 -11 -31
-11 -16 0 -28 -4 -24 -9 3 -6 24 -4 53 4 26 8 61 15 77 16 26 0 27 2 10 9 -24
11 -25 11 -50 1z"/>
<path d="M1820 3031 c-160 -43 -250 -121 -292 -253 -15 -50 -19 -86 -17 -178
2 -63 6 -122 10 -130 4 -8 21 -60 39 -115 27 -85 119 -314 180 -450 167 -370
240 -650 216 -832 -26 -204 -291 -364 -548 -332 -145 18 -236 54 -319 128 -89
78 -149 206 -149 315 0 72 32 131 129 240 44 49 95 116 113 150 31 57 33 67
33 156 0 81 -4 103 -26 150 -50 107 -142 169 -286 191 -92 14 -159 5 -237 -32
-48 -22 -126 -100 -153 -153 -23 -45 -53 -136 -53 -163 0 -12 -3 -23 -7 -23
-9 0 -8 -245 0 -270 2 -8 10 -50 16 -93 13 -84 55 -216 90 -285 12 -23 19 -48
15 -55 -4 -7 -4 -9 1 -5 4 4 30 -24 57 -63 83 -118 195 -216 318 -279 61 -31
200 -80 227 -80 13 0 23 -3 23 -8 0 -4 26 -9 57 -10 32 -2 60 -7 63 -10 7 -10
329 -9 323 1 -2 4 14 8 36 9 23 1 49 2 59 2 9 1 19 4 22 8 4 4 22 9 42 10 20
2 34 6 31 11 -2 4 3 7 12 7 28 0 164 68 230 115 191 136 317 350 370 628 41
216 24 600 -41 915 l-15 75 40 41 c22 23 55 73 73 111 31 65 33 77 33 175 0
92 -3 111 -25 155 -53 104 -175 192 -317 229 -84 22 -286 20 -373 -3z m365
-16 c32 -9 70 -22 84 -30 14 -8 38 -19 54 -26 15 -6 27 -15 27 -21 0 -5 4 -7
9 -4 14 9 94 -73 126 -129 40 -68 47 -182 15 -274 -23 -69 -62 -133 -104 -168
-29 -25 -31 -39 -16 -110 47 -231 62 -372 63 -613 1 -147 -3 -218 -16 -289
-30 -164 -101 -342 -169 -430 -60 -77 -150 -171 -164 -171 -7 0 -18 -9 -24
-20 -6 -11 -15 -20 -19 -20 -5 0 -34 -15 -66 -34 -31 -19 -82 -42 -113 -51
-31 -10 -75 -24 -97 -31 -22 -8 -69 -18 -105 -24 -80 -11 -405 -6 -422 7 -7 5
-44 15 -83 23 -136 26 -287 105 -398 209 -60 56 -139 156 -130 165 4 3 2 6 -4
6 -6 0 -26 28 -43 62 -105 201 -148 511 -100 707 26 102 81 208 103 194 6 -3
7 -1 3 5 -8 13 61 66 113 88 43 18 181 21 241 4 87 -24 188 -88 174 -111 -4
-8 -3 -9 5 -5 7 5 21 -13 38 -51 22 -47 27 -73 28 -138 0 -107 -33 -178 -134
-284 -62 -66 -121 -152 -132 -194 -6 -24 -9 -73 -6 -114 14 -183 156 -339 367
-404 100 -31 282 -34 350 -6 176 71 279 156 320 262 45 114 26 315 -51 549
-22 65 -49 137 -59 159 -11 22 -20 45 -20 49 0 5 -9 28 -20 50 -11 23 -20 45
-20 50 0 4 -17 45 -39 90 -62 134 -126 294 -172 428 -40 119 -42 131 -43 250
-1 122 0 127 31 191 74 150 210 217 443 218 74 1 137 -5 175 -14z"/>
<path d="M1431 2862 c-19 -54 -26 -286 -12 -368 7 -38 32 -128 57 -200 77
-228 84 -310 34 -430 -14 -34 -15 -43 -5 -29 28 36 50 127 49 205 -1 64 -9
100 -57 241 -32 92 -60 191 -65 220 -12 87 -7 310 7 352 7 21 11 40 9 43 -3 2
-10 -13 -17 -34z"/>
<path d="M2431 2330 c0 -8 4 -33 9 -55 29 -118 52 -325 57 -522 6 -237 -4
-357 -43 -492 -14 -46 -23 -85 -21 -87 6 -7 47 139 64 229 26 133 19 528 -12
712 -26 154 -54 266 -54 215z"/>
<path d="M833 2127 c-3 -5 -16 -6 -30 -2 -14 3 -22 2 -19 -3 3 -5 52 -12 108
-14 164 -8 263 -63 323 -179 44 -85 51 -194 19 -285 -5 -12 -4 -16 3 -9 5 6
15 29 21 51 34 119 -14 280 -105 352 -39 30 -99 64 -120 68 -6 1 -28 7 -47 14
-20 6 -40 9 -46 5 -5 -3 -16 -3 -22 2 -17 11 -78 11 -85 0z"/>
<path d="M740 2110 c0 -5 9 -10 21 -10 11 0 17 5 14 10 -3 6 -13 10 -21 10 -8
0 -14 -4 -14 -10z"/>
<path d="M712 2094 c-7 -8 -8 -14 -3 -14 10 0 25 19 20 25 -2 1 -10 -3 -17
-11z"/>
<path d="M349 1803 c-15 -64 -18 -250 -7 -358 18 -163 84 -361 167 -499 53
-88 65 -103 146 -186 66 -68 83 -82 154 -128 134 -87 282 -145 456 -176 155
-28 620 -5 567 28 -6 4 -20 2 -31 -4 -11 -5 -27 -7 -35 -4 -9 3 -16 2 -16 -2
0 -13 -152 -17 -437 -12 -13 0 -23 4 -23 8 0 4 -10 8 -22 8 -53 1 -78 5 -78
11 0 4 -8 7 -17 8 -50 3 -176 48 -260 93 -270 144 -443 375 -530 709 -20 78
-26 129 -30 272 -4 114 -1 194 6 229 6 29 9 55 7 57 -2 3 -10 -22 -17 -54z"/>
<path d="M980 1250 c-12 -181 80 -337 246 -415 103 -49 245 -73 349 -60 31 3
54 9 51 13 -8 8 -56 9 -56 1 0 -3 -19 -4 -42 -2 -24 3 -64 5 -90 6 -27 1 -48
4 -48 8 0 3 -14 6 -31 7 -17 0 -37 6 -45 13 -8 6 -14 8 -14 4 0 -4 -7 -2 -15
5 -8 7 -15 9 -15 5 0 -9 -86 41 -133 79 -44 35 -105 123 -125 180 -8 23 -18
75 -22 116 -4 43 -8 60 -10 40z"/>
<path d="M2416 1145 c-9 -26 -7 -32 5 -12 6 10 9 21 6 23 -2 3 -7 -2 -11 -11z"/>
<path d="M2396 1093 c-6 -14 -5 -15 5 -6 7 7 10 15 7 18 -3 3 -9 -2 -12 -12z"/>
<path d="M2376 1053 c-6 -14 -5 -15 5 -6 7 7 10 15 7 18 -3 3 -9 -2 -12 -12z"/>
<path d="M1648 798 c5 -5 19 -5 33 1 22 8 22 9 -9 9 -19 -1 -29 -5 -24 -10z"/>
<path d="M1881 500 c-8 -4 -21 -6 -29 -2 -10 3 -13 1 -8 -6 4 -7 13 -12 19
-12 16 0 43 18 36 24 -2 3 -11 1 -18 -4z"/>
<path d="M1616 3342 c-3 -5 1 -9 9 -9 8 0 15 4 15 9 0 4 -4 8 -9 8 -6 0 -12
-4 -15 -8z"/>
<path d="M825 2420 c-3 -5 -23 -9 -43 -9 -51 2 -103 -3 -98 -9 3 -2 85 -5 183
-6 158 -1 185 -4 238 -24 68 -25 105 -35 105 -27 0 9 -89 45 -111 45 -10 0
-19 4 -19 9 0 11 -7 12 -124 12 -61 -1 -92 3 -98 12 -6 9 -8 9 -8 0 0 -7 -5
-13 -11 -13 -5 0 -7 5 -4 10 3 6 4 10 1 10 -3 0 -8 -4 -11 -10z"/>
<path d="M650 2390 c-7 -4 -20 -6 -29 -3 -12 5 -13 3 -4 -7 8 -9 19 -10 39 -3
15 5 24 12 18 16 -5 3 -16 2 -24 -3z"/>
<path d="M580 2360 c-8 -5 -10 -10 -5 -10 6 0 17 5 25 10 8 5 11 10 5 10 -5 0
-17 -5 -25 -10z"/>
<path d="M2758 2235 c-3 -3 -2 -23 2 -43 37 -169 47 -670 17 -832 -16 -85 -47
-217 -63 -267 -5 -15 -4 -16 5 -2 19 29 61 210 77 333 29 217 0 848 -38 811z"/>
<path d="M2686 1023 c-9 -26 -12 -43 -7 -38 11 13 32 77 27 82 -2 2 -11 -17
-20 -44z"/>
<path d="M2645 929 c-4 -6 -5 -12 -2 -15 2 -3 7 2 10 11 7 17 1 20 -8 4z"/>
</g>
</svg>
